<svg xmlns="http://www.w3.org/2000/svg" viewBox="0 0 64 64" role="img" aria-label="Figuritas Mundial">
  <rect width="64" height="64" rx="14" fill="#ffffff"/>
  <path d="M0 0h18v18H0z" fill="#ff6b00"/>
  <path d="M46 0h18v18H46z" fill="#b9ed55"/>
  <path d="M0 46h18v18H0z" fill="#2367c9"/>
  <path d="M46 46h18v18H46z" fill="#c51d34"/>
  <path d="M6 24c10 0 10-10 20-10s10 10 20 10 10-10 18-10v12c-8 0-8 10-18 10s-10-10-20-10S16 36 6 36H0V24h6z" fill="#22a975"/>
  <rect x="12" y="10" width="40" height="44" rx="7" fill="#fff8e8" stroke="#111418" stroke-width="4"/>
  <rect x="18" y="16" width="28" height="12" rx="4" fill="#ffd719"/>
  <path d="M19 45h26" stroke="#111418" stroke-width="4" stroke-linecap="round"/>
  <text x="32" y="42" text-anchor="middle" font-family="Arial Black, Arial, sans-serif" font-size="22" font-weight="900" fill="#111418">26</text>
</svg>
